<?xml version="1.0" encoding="utf-8"?>
<svg width="1111" height="551" viewBox="0 0 1111 551" fill="none" xmlns="http://www.w3.org/2000/svg">
  <path fill-rule="evenodd" clip-rule="evenodd" d="M-213 805.423H-51.3572C-51.3572 805.423 -50.2479 777.549 -50.4402 754.305C-50.6341 731.062 -53.1494 722.027 -53.5325 710.03C-53.9142 698.036 -59.2908 683.082 -54.9609 680.407C-50.6341 677.732 -31.7909 628.159 -33.2402 643.933C-34.6894 659.706 -46.2848 681.49 -32.5155 688.248C-18.7447 695.013 26.9139 707.028 41.4078 706.278C55.9017 705.524 74.7464 682.24 74.7464 682.24C74.7464 682.24 121.176 704.222 105.91 703.273C90.6433 702.324 55.9017 698.016 76.1941 704.772C96.4865 711.537 111.707 719.044 111.707 719.044C111.707 719.044 71.8971 713.937 89.2403 722.802C106.581 731.665 113.156 809.178 113.156 802.418C113.156 795.659 112.433 749.094 113.156 732.566C113.88 716.042 116.057 700.267 117.505 696.514C118.954 692.757 81.4976 683.394 66.1627 674.932C50.8264 666.465 45.0294 667.97 48.654 661.959C52.2786 655.948 94.3141 548.97 94.3141 548.97C94.3141 548.97 121.926 558.692 131.38 558.692C140.839 558.692 155.185 555.986 153.554 551.932C151.924 547.876 143.772 551.256 132.688 548.888C121.601 546.524 102.361 542.471 112.145 541.115C121.926 539.765 142.469 550.58 154.209 547.536C165.946 544.496 179.314 539.088 170.836 535.373C162.358 531.655 159.748 537.062 141.164 533.006C122.577 528.952 104.319 525.908 113.448 524.556C122.577 523.205 138.553 530.641 152.901 529.964C167.247 529.288 187.465 536.048 183.229 526.583C178.989 517.123 168.557 516.785 153.882 514.082C139.205 511.376 115.404 505.971 126.166 505.634C136.925 505.295 169.208 517.797 178.337 515.096C187.467 512.39 196.924 504.957 181.27 500.9C165.619 496.842 137.25 486.704 137.25 486.704C137.25 486.704 108.23 482.986 95.5129 486.367C82.7977 489.745 78.5588 489.07 63.2329 486.029C47.9085 482.984 2.25438 454.599 -7.85306 454.939C-17.9605 455.275 -39.8095 458.652 -47.6342 467.779C-55.4589 476.905 -62.9601 487.717 -63.2851 493.464C-63.6116 499.21 -60.6789 510.699 -57.4166 515.094C-54.1543 519.486 -16.0043 532.327 2.25436 533.679C20.5145 535.033 62.5814 530.638 70.7326 531.989C78.8839 533.341 92.5801 541.792 93.2317 543.818C93.8847 545.845 103.664 549.903 73.6654 562.066C43.6667 574.234 18.8864 568.489 16.6037 558.352C14.321 548.211 11.7132 535.371 10.4086 539.425C9.10399 543.481 -7.52654 629.986 0.62471 641.135C8.77745 652.29 44.6447 657.022 47.9085 655.332C51.1678 653.641 88.6663 543.481 85.732 542.131C82.7992 540.777 62.9079 532.666 38.7762 536.045C14.646 539.423 2.25438 539.762 -0.353363 540.775C-2.9626 541.791 -30.3536 596.539 -30.3536 587.077C-30.3536 577.611 -32.9613 556.321 -36.2221 560.039C-39.4844 563.759 -71.4394 639.783 -56.44 637.42C-41.4406 635.054 -38.1798 627.281 -41.4406 635.054C-44.7014 642.828 -51.5167 680.478 -57.5642 678.211C-63.6131 675.946 -71.7629 677.296 -72.0894 669.524C-72.4159 661.751 -71.7629 604.987 -70.7863 586.402C-69.8067 567.813 -63.2851 535.371 -63.9382 524.217C-64.5897 513.067 -59.6993 517.12 -59.6993 517.12C-59.6993 517.12 -61.0024 525.568 -67.8505 518.809C-74.6987 512.048 -76.0033 511.036 -79.5906 500.899C-83.1764 490.76 -88.3949 493.463 -86.1107 482.647C-83.828 471.833 -79.5906 464.397 -75.3487 457.301C-71.1098 450.205 -69.1552 444.795 -56.112 441.08C-43.0673 437.361 -26.3786 433.858 -18.0917 435.103C-9.80626 436.349 -4.26425 438.713 -3.61269 441.757C-2.96112 444.797 -11.1124 443.446 -14.3732 445.472C-17.6355 447.503 -5.24382 446.486 -3.61269 447.503C-1.98303 448.515 12.3663 450.881 -3.61269 450.542C-19.5901 450.205 -26.489 442.857 -39.1549 447.84C-51.8209 452.822 -76.6593 484.026 -68.9926 477.59C-61.3289 471.158 -54.4808 458.315 -57.0886 465.074C-59.6978 471.833 -67.5225 494.814 -70.7848 489.743C-74.0441 484.678 -83.1749 476.903 -82.1969 463.384C-81.2188 449.865 -93.6104 406.269 -93.2839 388.696C-92.9588 371.12 -97.8493 319.414 -94.59 300.152C-91.3277 280.887 -89.6965 275.48 -82.8484 266.355C-76.0033 257.231 -70.7848 247.767 -63.6116 251.148C-56.437 254.526 -40.7861 267.03 -36.5457 282.914C-32.3083 298.797 -20.4266 341.333 -18.8685 350.314C-17.3074 359.294 -14.0481 381.6 -12.0905 392.75C-10.1343 403.904 -7.52652 434.658 -8.82965 428.911C-10.1343 423.166 -12.417 405.593 -22.8509 391.736C-33.2864 377.879 -85.1311 353.21 -60.6774 361.32C-36.2206 369.431 -18.2855 388.358 -27.7429 371.795C-37.1987 355.236 -70.7863 310.288 -53.5027 319.75C-36.2207 329.215 -29.046 352.195 -27.0898 349.49C-25.1336 346.788 -16.0028 300.489 -15.0262 311.977C-14.0481 323.469 -13.0685 353.884 -8.83115 352.195C-4.59077 350.503 -1.00493 347.125 -4.59076 350.503C-8.17659 353.884 -14.6997 347.8 -12.4185 357.937C-10.1343 368.079 -9.15617 424.176 -4.59076 417.42C-0.0268402 410.661 5.51666 401.196 5.51666 379.567C5.51666 357.936 1.93083 295.754 -10.7873 275.138C-23.504 254.524 -36.5457 241.683 -40.7861 241.004C-45.025 240.329 -68.1756 246.751 -59.6993 245.399C-51.22 244.049 -44.0543 238.555 -42.7422 236.276C-41.4317 233.996 -48.9388 233.57 -31.9818 229.855C-15.0247 226.134 2.62564 215.028 8.60301 215.281C-6.82129 214.626 9.90315 222.989 20.1284 240.329C30.8904 258.581 30.2999 262.634 56.3863 290.347C82.4712 318.059 111.168 358.276 116.057 355.234C120.949 352.195 129.425 328.196 130.404 306.23C131.382 284.265 127.796 257.228 127.796 248.439C127.796 239.652 120.949 230.866 129.1 237.626C137.252 244.385 140.839 245.736 152.251 250.808C163.665 255.875 175.08 263.989 176.383 268.042C177.687 272.099 179.644 275.138 180.294 287.981C180.947 300.824 183.556 344.759 186.165 356.585C188.771 368.414 189.754 380.24 190.079 386.326C190.404 392.41 190.404 407.954 189.426 403.564C188.445 399.169 185.512 366.05 183.231 365.708C180.947 365.37 175.731 369.428 155.187 369.766C134.644 370.103 130.404 370.442 110.512 370.103C90.6254 369.766 83.1242 368.753 60.9487 368.753C38.7762 368.753 9.10399 371.454 8.77597 372.468C8.45093 373.484 8.45093 386.326 8.45093 392.746C8.45093 399.169 7.1478 403.564 7.1478 403.564C7.1478 403.564 20.5145 400.519 52.1444 403.9C83.7758 407.279 104.645 407.954 121.274 407.279C137.902 406.603 185.186 398.832 185.186 398.832C185.186 398.832 182.578 396.804 171.164 397.48C159.749 398.155 127.144 403.902 126.166 403.902C125.185 403.902 109.861 432.291 125.185 430.262C140.512 428.234 180.619 407.28 171.489 417.42C162.358 427.559 128.121 449.862 144.098 444.455C160.074 439.047 177.684 423.501 169.207 431.952C160.729 440.402 118.666 482.304 119.317 475.547C119.97 468.789 120.946 436.682 119.97 410.661C118.992 384.637 113.773 351.181 113.448 349.49C113.123 347.8 110.462 324.752 106.273 306.907C102.085 289.065 100.078 283.588 100.403 280.549C100.728 277.504 102.685 268.718 105.948 267.03C109.208 265.341 113.448 252.498 114.426 245.062C115.404 237.628 110.186 228.166 111.493 228.166C112.796 228.166 118.012 228.504 120.623 233.911C123.229 239.317 128.121 281.562 124.859 277.167C121.599 272.776 112.47 267.704 109.208 267.367C105.948 267.03 98.7752 280.885 97.4706 277.167C96.163 273.451 103.338 268.044 85.7305 258.582C68.1204 249.122 57.6253 255.538 46.2118 238.98C34.7997 222.421 20.7784 199.777 19.1488 200.116C17.5191 200.454 10.996 204.507 9.69292 211.945C8.38829 219.379 14.5849 228.843 23.0611 238.98C31.5389 249.122 56.7098 283.927 58.9925 283.59C61.2737 283.251 61.6033 274.803 69.103 270.75C76.6026 266.693 87.0351 262.635 87.0351 262.635C87.0351 262.635 84.4273 263.652 66.1642 254.187C47.9055 244.725 21.1035 223.773 21.1035 223.773C21.1035 223.773 20.4519 204.507 22.7331 193.695C25.0158 182.882 25.9954 176.12 25.9954 170.715C25.9954 165.305 30.8874 172.402 23.3877 158.884C15.8865 145.369 18.5569 136.242 19.863 129.82C21.1691 123.399 28.0142 119.008 30.6235 121.71C33.2327 124.415 35.8419 139.623 38.1246 140.636C40.4058 141.649 36.8185 136.918 41.3839 130.158C45.9478 123.399 56.7098 125.091 58.9925 118.331C61.2737 111.572 62.5814 96.7011 62.5814 96.7011C56.6159 95.6874 50.5476 95.026 44.5091 94.7865C33.2103 94.3368 24.5357 98.8491 14.1689 103.153C13.6768 103.354 13.1625 103.576 12.8374 104.009C12.4915 104.469 12.4244 105.087 12.3812 105.672C11.8787 112.544 13.1729 119.55 16.0878 125.742C16.7826 119.823 16.5649 113.792 15.4496 107.94C15.1365 106.299 14.7131 104.593 13.6068 103.371C10.428 99.8705 4.66678 107.021 1.92932 103.122C-0.681396 99.4023 2.25287 92.3063 13.6679 89.6036C25.0799 86.8962 59.3176 85.5456 76.9277 89.2667C94.5348 92.9816 128.772 97.3764 146.709 100.079C164.641 102.782 187.792 110.558 187.792 106.5C187.792 102.447 168.557 98.0533 168.557 98.0533C168.557 98.0533 166.271 62.2302 153.228 40.5991C140.189 18.9695 134.969 16.6067 134.969 16.6067C134.969 16.6067 142.469 47.0213 139.205 43.3018C133.693 39.6688 133.468 21.2334 128.61 14.3614C120.784 7.60227 102.034 -0.629543 95.8394 1.39789C89.6443 3.42532 90.4823 4.07589 90.4823 5.08807C90.4823 6.10178 94.2097 5.11433 97.147 11.8735C100.08 18.6326 103.666 44.3186 101.709 38.9116C93.2048 29.6599 97.0262 5.79736 82.7992 7.14332C75.6216 7.82016 64.8641 7.82016 53.7756 14.2362C42.6886 20.6585 30.625 30.7988 25.733 39.5853C20.8426 48.3719 9.10399 82.8444 14.6475 84.5335C20.191 86.2209 30.9515 81.8307 53.7756 81.4923C76.6041 81.1539 115.406 87.5731 131.055 90.9542C146.709 94.3353 161.708 97.3764 161.708 97.3764C161.708 97.3764 159.424 120.695 158.446 125.765C157.468 130.837 155.513 148.747 153.882 156.857C152.25 164.968 140.187 187.273 132.688 197.747C125.185 208.225 114.753 218.024 107.253 218.699C99.7533 219.378 61.8642 211.943 54.038 201.803C46.2118 191.664 36.4309 186.933 34.8012 178.485C33.1701 170.035 33.4966 152.799 31.2139 160.575C28.9312 168.347 27.6266 173.414 30.5608 183.893C33.4951 194.369 36.4309 229.515 52.4083 238.642C68.3858 247.765 66.4922 226.477 74.97 230.192C83.4507 233.911 96.8175 256.555 100.405 252.16C103.991 247.765 107.905 218.361 113.775 222.419C119.645 226.475 146.709 251.146 149.317 265.34C151.925 279.535 143.447 343.067 153.884 322.117C164.316 301.164 169.535 270.748 172.142 270.068C174.75 269.393 185.837 275.477 192.359 282.911C198.88 290.347 210.622 371.454 210.622 371.454C210.622 371.454 132.363 489.063 141.492 481.629C150.621 474.193 302.875 253.588 302.875 253.588C302.875 253.588 317.575 278.858 359.965 283.587C402.356 288.32 418.005 281.561 453.222 288.32C488.44 295.079 534.088 299.134 542.566 288.32C551.046 277.503 554.959 262.634 538.655 258.579C522.352 254.523 516.536 253.983 513.245 263.376C509.961 272.773 509.961 284.942 518.438 285.616C526.915 286.291 536.7 281.559 534.089 284.262C531.483 286.966 521.701 293.052 516.482 293.052C511.264 293.052 502.788 299.132 502.788 291.698C502.788 284.263 504.401 263.711 509.789 259.794C515.178 255.873 536.7 252.495 545.176 257.227C553.654 261.957 556.914 275.475 553.003 282.234C549.087 288.995 392.57 510.693 392.57 510.693C392.57 510.693 402.356 486.361 410.832 494.47C419.31 502.582 402.354 512.042 402.354 512.042C402.354 512.042 413.438 513.397 408.877 520.158C404.311 526.914 397.136 528.268 397.136 528.268C397.136 528.268 398.44 537.054 397.136 540.432C395.833 543.813 388.66 546.516 388.66 546.516C388.66 546.516 392.57 552.602 383.441 556.653C374.312 560.71 354.747 565.443 356.703 564.091C358.658 562.737 377.571 562.062 367.139 555.978C356.703 549.897 331.06 547.161 340.399 539.757C351.485 530.97 384.094 544.49 378.224 541.786C372.354 539.08 346.922 535.704 350.833 523.536C354.747 511.368 382.138 520.158 382.138 520.158C382.138 520.158 348.877 505.963 361.27 501.906C373.662 497.85 390.616 505.963 390.616 505.963C390.616 505.963 372.354 497.173 385.397 493.797C398.442 490.414 403.007 489.739 403.007 492.445C403.007 492.445 420.615 490.414 414.093 505.963C407.57 521.51 388.661 562.737 367.792 568.823C346.924 574.905 341.052 591.127 343.008 587.073C343.008 587.073 313.661 669.856 310.403 672.563C307.141 675.264 287.575 687.432 230.837 692.161C174.1 696.894 114.663 685.258 114.663 685.258C99.4461 677.371 84.2276 669.486 69.009 661.599C59.9229 662.245 119.651 697.498 127.955 703.699C130.223 710.42 154.537 699.597 153.884 703.653C153.229 707.706 111.495 740.828 123.883 735.42C136.274 730.016 162.361 711.089 154.537 721.225C146.711 731.366 107.581 755.022 135.624 744.883C163.666 734.746 170.189 694.19 171.492 696.894C172.795 699.597 178.014 714.465 185.839 714.465C193.663 714.465 223.664 698.92 216.49 697.568C209.314 696.217 208.327 697.544 206.215 703.638C204.102 709.735 203.45 721.9 203.45 734.068C203.45 746.235 203.45 804.363 203.45 804.363H1111" style="fill: rgb(164, 22, 26);"/>
  <path d="M-213 805.423H-51.3572C-51.3572 805.423 -50.2479 777.549 -50.4402 754.305C-50.6341 731.062 -53.1494 722.027 -53.5325 710.03C-53.9142 698.036 -59.2908 683.082 -54.9609 680.407C-50.6341 677.732 -31.7909 628.159 -33.2402 643.933C-34.6894 659.706 -46.2848 681.49 -32.5155 688.248C-18.7447 695.013 26.9139 707.028 41.4078 706.278C55.9017 705.524 74.7464 682.24 74.7464 682.24C74.7464 682.24 121.176 704.222 105.91 703.273C90.6433 702.324 55.9017 698.016 76.1941 704.772C96.4865 711.537 111.707 719.044 111.707 719.044C111.707 719.044 71.8971 713.937 89.2403 722.802C106.58 731.665 113.156 809.178 113.156 802.418C113.156 795.659 112.433 749.094 113.156 732.566C113.88 716.042 116.057 700.267 117.505 696.514C118.954 692.757 81.4976 683.394 66.1627 674.932C50.8264 666.465 45.0294 667.971 48.654 661.959C52.2786 655.948 94.3141 548.97 94.3141 548.97C94.3141 548.97 121.926 558.692 131.38 558.692C140.839 558.692 155.185 555.986 153.554 551.932C151.925 547.876 143.772 551.256 132.688 548.888C121.601 546.524 102.361 542.471 112.145 541.115C121.926 539.765 142.469 550.58 154.209 547.536C165.946 544.496 179.314 539.088 170.836 535.373C162.358 531.655 159.748 537.062 141.164 533.006C122.577 528.952 104.319 525.908 113.448 524.556C122.577 523.205 138.553 530.641 152.901 529.964C167.247 529.288 187.465 536.048 183.229 526.583C178.989 517.123 168.557 516.785 153.882 514.082C139.205 511.376 115.404 505.971 126.166 505.634C136.925 505.295 169.208 517.797 178.337 515.096C187.467 512.39 196.924 504.957 181.27 500.9C165.619 496.843 137.25 486.704 137.25 486.704C137.25 486.704 108.23 482.986 95.5129 486.367C82.7977 489.745 78.5588 489.07 63.2329 486.029C47.9085 482.984 2.25437 454.599 -7.85305 454.939C-17.9605 455.275 -39.8095 458.652 -47.6342 467.779C-55.4589 476.905 -62.9601 487.717 -63.2851 493.464C-63.6116 499.21 -60.6789 510.699 -57.4166 515.094C-54.1543 519.486 -16.0043 532.327 2.25436 533.679C20.5145 535.033 62.5814 530.638 70.7326 531.989C78.8839 533.341 92.5801 541.792 93.2317 543.818C93.8847 545.846 103.664 549.903 73.6654 562.066C43.6666 574.234 18.8864 568.489 16.6037 558.352C14.321 548.211 11.7132 535.371 10.4086 539.425C9.10399 543.481 -7.52654 629.985 0.624706 641.135C8.77744 652.29 44.6447 657.022 47.9085 655.332C51.1678 653.641 88.6662 543.481 85.732 542.131C82.7992 540.777 62.9079 532.666 38.7762 536.045C14.646 539.423 2.25437 539.762 -0.35337 540.775C-2.9626 541.791 -30.3536 596.539 -30.3536 587.077C-30.3536 577.611 -32.9613 556.321 -36.2221 560.039C-39.4844 563.759 -71.4394 639.783 -56.44 637.42C-41.4406 635.054 -38.1798 627.281 -41.4406 635.054C-44.7014 642.828 -51.5167 680.478 -57.5642 678.211C-63.6131 675.946 -71.7629 677.296 -72.0894 669.524C-72.4159 661.751 -71.7629 604.987 -70.7863 586.402C-69.8067 567.813 -63.2851 535.371 -63.9382 524.217C-64.5897 513.067 -59.6993 517.12 -59.6993 517.12C-59.6993 517.12 -61.0024 525.568 -67.8505 518.809C-74.6987 512.048 -76.0033 511.036 -79.5906 500.899C-83.1764 490.76 -88.3949 493.463 -86.1107 482.647C-83.828 471.833 -79.5906 464.397 -75.3487 457.301C-71.1098 450.205 -69.1552 444.795 -56.112 441.08C-43.0673 437.361 -26.3786 433.858 -18.0917 435.103C-9.80626 436.349 -4.26425 438.713 -3.61268 441.757C-2.96112 444.797 -11.1124 443.446 -14.3732 445.472C-17.6354 447.503 -5.24383 446.486 -3.61268 447.503C-1.98303 448.515 12.3663 450.881 -3.61268 450.542C-19.5901 450.205 -26.489 442.857 -39.1549 447.84C-51.8209 452.822 -76.6593 484.026 -68.9926 477.59C-61.3289 471.158 -54.4808 458.315 -57.0886 465.074C-59.6978 471.833 -67.5225 494.814 -70.7848 489.743C-74.0441 484.678 -83.1749 476.903 -82.1969 463.384C-81.2188 449.865 -93.6104 406.269 -93.2839 388.696C-92.9588 371.12 -97.8493 319.414 -94.59 300.152C-91.3277 280.887 -89.6965 275.48 -82.8484 266.355C-76.0033 257.231 -70.7848 247.767 -63.6116 251.148C-56.437 254.526 -40.7861 267.03 -36.5457 282.914C-32.3083 298.797 -20.4266 341.333 -18.8685 350.314C-17.3074 359.294 -14.0481 381.6 -12.0905 392.75C-10.1343 403.904 -7.52652 434.658 -8.82965 428.911C-10.1343 423.166 -12.417 405.593 -22.8509 391.736C-33.2864 377.879 -85.1311 353.21 -60.6774 361.32C-36.2206 369.431 -18.2855 388.358 -27.7429 371.795C-37.1987 355.236 -70.7863 310.288 -53.5027 319.75C-36.2207 329.215 -29.046 352.195 -27.0898 349.49C-25.1336 346.788 -16.0028 300.489 -15.0262 311.977C-14.0481 323.469 -13.0685 353.884 -8.83115 352.195C-4.59077 350.503 -1.00493 347.125 -4.59076 350.503C-8.17659 353.884 -14.6997 347.8 -12.4185 357.937C-10.1343 368.079 -9.15617 424.176 -4.59076 417.42C-0.0268355 410.661 5.51666 401.196 5.51666 379.567C5.51666 357.936 1.93083 295.754 -10.7873 275.138C-23.504 254.524 -36.5457 241.683 -40.7861 241.004C-45.025 240.329 -68.1756 246.751 -59.6993 245.399C-51.22 244.049 -44.0543 238.555 -42.7422 236.276C-41.4317 233.996 -48.9388 233.57 -31.9818 229.855C-15.0247 226.134 2.62564 215.028 8.60302 215.281C-6.82128 214.626 9.90316 222.989 20.1284 240.329C30.8903 258.581 30.2999 262.634 56.3863 290.347C82.4712 318.059 111.168 358.276 116.057 355.234C120.949 352.195 129.425 328.196 130.404 306.23C131.382 284.265 127.796 257.228 127.796 248.439C127.796 239.652 120.949 230.866 129.1 237.626C137.252 244.385 140.839 245.736 152.251 250.808C163.665 255.875 175.08 263.989 176.383 268.042C177.687 272.099 179.644 275.138 180.294 287.981C180.947 300.824 183.556 344.759 186.165 356.585C188.771 368.414 189.754 380.24 190.079 386.326C190.404 392.41 190.404 407.954 189.426 403.564C188.445 399.169 185.512 366.05 183.231 365.708C180.947 365.37 175.731 369.428 155.187 369.766C134.644 370.103 130.404 370.442 110.512 370.103C90.6254 369.766 83.1242 368.753 60.9487 368.753C38.7762 368.753 9.10399 371.454 8.77597 372.468C8.45093 373.484 8.45093 386.326 8.45093 392.746C8.45093 399.169 7.14779 403.564 7.14779 403.564C7.14779 403.564 20.5145 400.519 52.1444 403.9C83.7758 407.278 104.645 407.954 121.274 407.279C137.902 406.603 185.186 398.832 185.186 398.832C185.186 398.832 182.578 396.804 171.164 397.48C159.749 398.155 127.144 403.902 126.166 403.902C125.185 403.902 109.861 432.291 125.185 430.262C140.512 428.234 180.619 407.28 171.489 417.42C162.358 427.559 128.121 449.862 144.098 444.455C160.074 439.047 177.684 423.501 169.207 431.952C160.729 440.402 118.666 482.304 119.317 475.547C119.97 468.789 120.946 436.682 119.97 410.661C118.992 384.637 113.773 351.181 113.448 349.49C113.123 347.8 110.462 324.752 106.273 306.907C102.085 289.065 100.078 283.588 100.403 280.549C100.728 277.504 102.685 268.718 105.948 267.03C109.208 265.341 113.448 252.498 114.426 245.062C115.404 237.628 110.186 228.166 111.493 228.166C112.796 228.166 118.012 228.504 120.623 233.911C123.229 239.317 128.121 281.562 124.859 277.167C121.599 272.776 112.47 267.704 109.208 267.367C105.948 267.03 98.7752 280.885 97.4706 277.167C96.163 273.451 103.338 268.044 85.7305 258.582C68.1204 249.122 57.6253 255.538 46.2118 238.98C34.7997 222.421 20.7784 199.777 19.1488 200.116C17.5191 200.454 10.996 204.507 9.69291 211.945C8.3883 219.379 14.5849 228.843 23.0611 238.98C31.5389 249.122 56.7098 283.927 58.9925 283.59C61.2738 283.251 61.6033 274.803 69.103 270.75C76.6026 266.693 87.0351 262.635 87.0351 262.635C87.0351 262.635 84.4273 263.652 66.1642 254.187C47.9055 244.725 21.1035 223.773 21.1035 223.773C21.1035 223.773 20.4519 204.507 22.7331 193.695C25.0158 182.882 25.9954 176.12 25.9954 170.715C25.9954 165.305 30.8874 172.402 23.3877 158.884C15.8865 145.369 18.5569 136.242 19.863 129.82C21.1691 123.399 28.0142 119.008 30.6235 121.71C33.2327 124.415 35.8419 139.623 38.1246 140.636C40.4058 141.649 36.8185 136.918 41.3839 130.158C45.9479 123.399 56.7098 125.091 58.9925 118.331C61.2738 111.572 62.5813 96.7011 62.5813 96.7011C56.6159 95.6874 50.5476 95.026 44.5091 94.7865C33.2103 94.3368 24.5357 98.8491 14.1689 103.153C13.6768 103.354 13.1625 103.576 12.8374 104.009C12.4915 104.469 12.4244 105.087 12.3812 105.672C11.8787 112.544 13.1729 119.55 16.0878 125.742C16.7826 119.823 16.5649 113.792 15.4496 107.94C15.1365 106.299 14.7131 104.593 13.6068 103.371C10.428 99.8705 4.66678 107.021 1.92932 103.122C-0.681402 99.4023 2.25287 92.3063 13.6679 89.6036C25.0799 86.8962 59.3176 85.5456 76.9277 89.2667C94.5348 92.9816 128.772 97.3764 146.709 100.079C164.641 102.782 187.792 110.558 187.792 106.5C187.792 102.447 168.557 98.0533 168.557 98.0533C168.557 98.0533 166.271 62.2302 153.228 40.5991C140.189 18.9695 134.969 16.6067 134.969 16.6067C134.969 16.6067 142.469 47.0213 139.205 43.3018C133.693 39.6688 133.468 21.2334 128.61 14.3614C120.784 7.60227 102.034 -0.629543 95.8394 1.39789C89.6443 3.42532 90.4823 4.07589 90.4823 5.08807C90.4823 6.10178 94.2098 5.11433 97.147 11.8735C100.08 18.6326 103.666 44.3186 101.709 38.9116C93.2048 29.6599 97.0262 5.79736 82.7992 7.14332C75.6216 7.82016 64.8641 7.82016 53.7756 14.2362C42.6886 20.6585 30.625 30.7988 25.733 39.5853C20.8426 48.3719 9.10399 82.8444 14.6475 84.5335C20.191 86.2209 30.9515 81.8307 53.7756 81.4923C76.6041 81.1539 115.406 87.5731 131.055 90.9542C146.709 94.3353 161.708 97.3764 161.708 97.3764C161.708 97.3764 159.424 120.695 158.446 125.765C157.468 130.837 155.513 148.747 153.882 156.857C152.25 164.968 140.187 187.273 132.688 197.747C125.185 208.225 114.753 218.024 107.253 218.699C99.7533 219.378 61.8642 211.943 54.038 201.803C46.2118 191.664 36.4309 186.933 34.8012 178.485C33.1701 170.035 33.4966 152.799 31.2139 160.575C28.9312 168.347 27.6266 173.414 30.5608 183.893C33.4951 194.369 36.4309 229.515 52.4083 238.642C68.3858 247.765 66.4922 226.477 74.97 230.192C83.4508 233.911 96.8175 256.555 100.405 252.16C103.991 247.765 107.905 218.361 113.775 222.419C119.645 226.475 146.709 251.146 149.317 265.34C151.925 279.535 143.447 343.067 153.884 322.117C164.316 301.164 169.535 270.748 172.142 270.068C174.75 269.393 185.837 275.477 192.359 282.911C198.88 290.347 210.622 371.454 210.622 371.454C210.622 371.454 132.363 489.063 141.492 481.629C150.621 474.193 302.875 253.588 302.875 253.588C302.875 253.588 317.575 278.858 359.965 283.587C402.356 288.32 418.005 281.561 453.222 288.32C488.44 295.079 534.088 299.134 542.566 288.32C551.046 277.503 554.959 262.634 538.655 258.579C522.352 254.523 516.536 253.983 513.245 263.376C509.961 272.773 509.961 284.942 518.438 285.616C526.915 286.291 536.7 281.559 534.089 284.262C531.483 286.966 521.701 293.052 516.482 293.052C511.264 293.052 502.788 299.132 502.788 291.698C502.788 284.263 504.401 263.711 509.789 259.794C515.178 255.873 536.7 252.495 545.176 257.227C553.654 261.957 556.913 275.475 553.003 282.234C549.087 288.995 392.57 510.693 392.57 510.693C392.57 510.693 402.356 486.361 410.832 494.47C419.31 502.582 402.354 512.042 402.354 512.042C402.354 512.042 413.438 513.397 408.877 520.158C404.311 526.914 397.136 528.268 397.136 528.268C397.136 528.268 398.44 537.054 397.136 540.432C395.833 543.813 388.66 546.516 388.66 546.516C388.66 546.516 392.57 552.602 383.441 556.653C374.312 560.71 354.747 565.443 356.703 564.091C358.658 562.737 377.571 562.062 367.139 555.978C356.703 549.897 331.06 547.161 340.399 539.757C351.485 530.97 384.094 544.49 378.224 541.786C372.354 539.08 346.922 535.704 350.833 523.536C354.747 511.368 382.138 520.158 382.138 520.158C382.138 520.158 348.877 505.963 361.27 501.906C373.662 497.85 390.616 505.963 390.616 505.963C390.616 505.963 372.354 497.173 385.397 493.797C398.442 490.414 403.007 489.739 403.007 492.445C403.007 492.445 420.615 490.414 414.093 505.963C407.57 521.51 388.661 562.737 367.792 568.823C346.924 574.905 341.052 591.127 343.008 587.073C343.008 587.073 313.661 669.856 310.403 672.563C307.141 675.264 287.575 687.432 230.837 692.161C174.1 696.894 114.663 685.258 114.663 685.258C99.4461 677.371 84.2276 669.486 69.009 661.599C59.9229 662.245 119.651 697.498 127.955 703.699C130.223 710.42 154.537 699.597 153.884 703.653C153.229 707.706 111.495 740.828 123.883 735.42C136.274 730.016 162.361 711.089 154.537 721.225C146.711 731.366 107.581 755.022 135.624 744.883C163.666 734.746 170.189 694.19 171.492 696.894C172.795 699.597 178.014 714.465 185.839 714.465C193.663 714.465 223.664 698.92 216.49 697.568C209.314 696.217 208.327 697.544 206.214 703.638C204.102 709.735 203.45 721.9 203.45 734.068C203.45 746.235 203.45 804.363 203.45 804.363H1111" stroke="white" stroke-opacity="0.1" stroke-width="1.4394" stroke-miterlimit="10" stroke-linejoin="round"/>
</svg>